<?xml version="1.0" standalone="no"?>
<!DOCTYPE svg PUBLIC "-//W3C//DTD SVG 20010904//EN"
 "http://www.w3.org/TR/2001/REC-SVG-20010904/DTD/svg10.dtd">
<svg version="1.0" xmlns="http://www.w3.org/2000/svg"
 width="437.000000pt" height="118.000000pt" viewBox="0 0 437.000000 118.000000"
 preserveAspectRatio="xMidYMid meet">

<g transform="translate(0.000000,118.000000) scale(0.100000,-0.100000)"
fill="#000000" stroke="none">
<path d="M1705 1120 c-130 -17 -314 -75 -421 -131 -154 -82 -227 -135 -372
-270 -40 -38 -81 -74 -90 -81 -27 -21 -136 -149 -161 -190 l-23 -38 85 0 c82
0 147 -13 147 -31 0 -16 -105 -40 -200 -46 -159 -9 -369 38 -553 126 -74 35
-80 37 -85 22 -4 -13 140 -82 238 -115 127 -42 226 -58 356 -58 107 0 131 4
210 30 104 35 88 40 261 -75 193 -127 339 -186 528 -212 242 -34 495 18 718
147 62 35 146 84 187 108 114 66 176 84 339 98 130 11 146 15 162 35 11 13 19
26 19 30 0 22 -38 44 -140 82 -142 52 -366 147 -484 206 -240 120 -352 158
-517 174 -163 15 -276 -13 -433 -108 -56 -35 -231 -174 -266 -213 -8 -9 -35
-31 -60 -50 -25 -18 -49 -39 -55 -45 -23 -27 -150 -105 -171 -105 -13 0 -49 7
-81 15 -31 8 -81 15 -111 15 -33 0 -52 4 -50 11 6 18 179 201 268 282 209 192
464 320 725 363 122 20 379 14 495 -11 233 -51 433 -159 745 -401 286 -223
457 -309 725 -365 137 -28 353 -31 485 -5 104 20 223 55 231 68 11 18 -3 18
-57 -1 -218 -77 -512 -79 -764 -6 -224 65 -360 142 -645 364 -290 226 -512
335 -769 377 -91 15 -316 17 -416 4z m270 -245 c49 -23 95 -57 95 -69 0 -3
-13 -6 -29 -6 -50 0 -157 -39 -200 -73 -59 -47 -85 -99 -85 -172 -1 -73 26
-118 88 -146 164 -74 348 101 307 293 -6 28 -9 53 -7 56 11 11 73 -25 113 -64
47 -48 63 -92 63 -180 0 -109 -70 -215 -185 -279 -185 -103 -389 -82 -526 55
-27 27 -62 76 -77 108 -23 49 -27 70 -27 152 0 112 18 162 86 235 98 106 269
146 384 90z m147 -14 c46 -17 164 -69 263 -116 193 -93 367 -168 533 -230 76
-28 102 -42 100 -53 -4 -22 -39 -30 -136 -31 -46 -1 -114 -8 -152 -17 -65 -14
-219 -85 -300 -138 -145 -93 -249 -142 -385 -178 -68 -19 -107 -22 -265 -23
-172 0 -192 2 -284 28 -127 35 -251 95 -392 188 -160 105 -151 99 -136 105 30
14 175 127 277 218 137 122 229 188 323 234 72 34 110 39 55 7 -16 -9 -40 -33
-53 -53 -13 -21 -32 -46 -41 -57 -9 -11 -27 -61 -39 -111 -22 -89 -22 -93 -6
-167 40 -179 185 -304 374 -323 155 -16 342 71 427 200 115 172 57 385 -119
440 -36 12 -66 31 -96 61 -24 25 -41 45 -38 45 4 0 44 -13 90 -29z m-20 -105
c4 -6 8 -15 8 -19 0 -10 -49 25 -50 35 0 10 33 -3 42 -16z"/>
</g>
</svg>
